<?xml version="1.0" encoding="utf-8"?>
<svg width="32px" height="32px" viewBox="0 0 32 32" version="1.1" xmlns:xlink="http://www.w3.org/1999/xlink" xmlns="http://www.w3.org/2000/svg">
  <defs>
    <filter filterUnits="userSpaceOnUse" color-interpolation-filters="sRGB" id="filter_1">
      <feFlood flood-opacity="0" result="BackgroundImageFix" />
      <feBlend mode="normal" in="SourceGraphic" in2="BackgroundImageFix" result="shape" />
      <feColorMatrix in="SourceAlpha" type="matrix" values="0 0 0 0 0 0 0 0 0 0 0 0 0 0 0 0 0 0 128 0" result="hardAlpha" />
      <feOffset dx="0" dy="2" />
      <feGaussianBlur stdDeviation="2" />
      <feComposite in2="hardAlpha" operator="arithmetic" k2="-1" k3="1" />
      <feColorMatrix type="matrix" values="0 0 0 0 0.39215687 0 0 0 0 0.39215687 0 0 0 0 0.39215687 0 0 0 0.49803922 0" />
      <feBlend mode="normal" in2="shape" result="effect0_innerShadow" />
    </filter>
    <path d="M32 0L32 0L32 32L0 32L0 0L32 0Z" id="path_1" />
    <path d="M5 16C5 9.92487 9.92487 5 16 5C22.0751 5 27 9.92487 27 16C27 22.0751 22.0751 27 16 27C9.92487 27 5 22.0751 5 16Z" id="path_2" />
    <clipPath id="clip_1">
      <use xlink:href="#path_1" clip-rule="evenodd" fill-rule="evenodd" />
    </clipPath>
    <clipPath id="clip_2">
      <use xlink:href="#path_2" />
    </clipPath>
  </defs>
  <g id="Frame" clip-path="url(#clip_1)">
    <path d="M32 0L32 0L32 32L0 32L0 0L32 0Z" id="Frame" fill="#FFFFFF" fill-opacity="0" stroke="none" />
    <g id="Oval">
      <use stroke="none" fill="#FF5252" xlink:href="#path_2" fill-rule="evenodd" filter="url(#filter_1)" />
      <g clip-path="url(#clip_2)">
        <use xlink:href="#path_2" fill="none" stroke="#808080" stroke-width="2" />
      </g>
    </g>
    <path d="M21 16.5L13 21L13 12L21 16.5Z" id="Triangle" fill="#FFFFFF" fill-rule="evenodd" stroke="none" />
  </g>
</svg>